<?xml version="1.0" standalone="no"?>
<!DOCTYPE svg PUBLIC "-//W3C//DTD SVG 20010904//EN"
 "http://www.w3.org/TR/2001/REC-SVG-20010904/DTD/svg10.dtd">
<svg version="1.0" xmlns="http://www.w3.org/2000/svg"
 width="500.000000pt" height="500.000000pt" viewBox="0 0 500.000000 500.000000"
 preserveAspectRatio="xMidYMid meet">
<metadata>
Created by potrace 1.14, written by Peter Selinger 2001-2017
</metadata>
<g transform="translate(0.000000,500.000000) scale(0.100000,-0.100000)"
fill="#000000" stroke="none">
<path d="M1312 3182 c-12 -2 -27 -12 -32 -23 -6 -10 -14 -19 -19 -19 -5 0 -25
-16 -46 -35 l-38 -34 1 -223 c0 -131 5 -240 11 -265 11 -39 60 -111 255 -372
65 -88 77 -110 76 -140 -6 -123 1 -220 16 -235 13 -13 45 -16 193 -16 171 0
178 1 198 23 11 12 39 37 62 56 l41 34 0 130 0 129 152 207 c83 113 158 222
167 241 22 51 29 496 8 525 -14 17 -28 19 -173 20 -88 1 -168 -3 -178 -8 -10
-5 -34 -25 -53 -43 -18 -19 -38 -34 -43 -34 -23 0 -30 -49 -30 -222 l-1 -183
-32 -51 c-41 -64 -47 -62 -118 48 l-53 83 -1 188 c-2 163 -4 190 -19 205 -14
14 -39 17 -169 17 -84 0 -162 -1 -175 -3z"/>
<path d="M2613 3180 c-10 -3 -34 -19 -53 -37 -19 -17 -46 -40 -59 -50 l-23
-19 0 -580 c0 -318 1 -593 1 -611 2 -65 -14 -63 476 -63 l443 0 26 23 c15 12
43 37 64 56 l37 33 3 133 c5 186 25 173 -265 173 -125 1 -243 1 -260 1 -31 1
-33 3 -33 36 l0 35 143 0 142 0 49 45 c27 25 53 45 57 45 19 0 25 81 20 247
-2 60 -12 63 -222 63 l-189 0 0 30 0 30 217 0 c201 0 219 1 238 19 11 11 39
38 63 60 l42 39 0 131 c0 136 -7 159 -48 162 -49 5 -853 3 -869 -1z"/>
</g>
</svg>
